<svg xmlns="http://www.w3.org/2000/svg" xmlns:xlink="http://www.w3.org/1999/xlink" width="40" zoomAndPan="magnify" viewBox="0 0 30 30.000001" height="40" preserveAspectRatio="xMidYMid meet" version="1.0"><defs><clipPath id="ef969d68d2"><path d="M 7.808594 3.167969 L 22.324219 3.167969 L 22.324219 20 L 7.808594 20 Z M 7.808594 3.167969 " clip-rule="nonzero"/></clipPath><clipPath id="b7298ee8c3"><path d="M 12 18 L 16 18 L 16 25.667969 L 12 25.667969 Z M 12 18 " clip-rule="nonzero"/></clipPath><clipPath id="ef3baf1cc0"><path d="M 7.355469 3 L 22.597656 3 L 22.597656 20 L 7.355469 20 Z M 7.355469 3 " clip-rule="nonzero"/></clipPath><clipPath id="0099a0d187"><path d="M 12 19 L 16 19 L 16 26.855469 L 12 26.855469 Z M 12 19 " clip-rule="nonzero"/></clipPath></defs><g clip-path="url(#ef969d68d2)"><path fill="#ab9a55" d="M 20.359375 11.546875 C 19.445312 12.539062 18.347656 13.375 17.292969 14.234375 C 17.097656 14.394531 16.726562 14.34375 16.371094 14.273438 C 16.46875 14.152344 16.558594 14.023438 16.660156 13.90625 C 17.847656 12.558594 18.828125 11.085938 19.363281 9.371094 C 19.542969 8.789062 19.613281 8.15625 19.617188 7.546875 C 19.628906 6.515625 19.105469 5.738281 18.125 5.230469 C 19.792969 4.691406 21.316406 5.617188 21.628906 7.316406 C 21.921875 8.921875 21.4375 10.375 20.359375 11.546875 Z M 16.179688 14.09375 C 15.949219 14.34375 15.320312 14.238281 14.769531 14.308594 C 14.886719 13.101562 14.976562 12.042969 15.097656 10.988281 C 15.207031 10.003906 15.34375 9.019531 15.476562 8.035156 C 15.636719 6.839844 16.328125 6.011719 17.390625 5.472656 C 17.570312 5.378906 17.878906 5.378906 18.066406 5.464844 C 19.152344 5.957031 19.714844 7.089844 19.503906 8.246094 C 19.082031 10.574219 17.742188 12.40625 16.179688 14.09375 Z M 11.804688 13.503906 C 10.496094 12.101562 9.246094 10.667969 8.582031 8.835938 C 7.929688 7.03125 8.355469 5.496094 9.769531 4.601562 C 10.714844 4.007812 11.695312 4.003906 12.753906 4.476562 C 11.035156 5.023438 10.304688 6.277344 10.535156 8.132812 C 10.71875 9.601562 11.335938 10.898438 12.117188 12.132812 C 12.507812 12.746094 12.929688 13.347656 13.355469 13.988281 C 12.710938 14.109375 12.242188 13.96875 11.804688 13.503906 Z M 13.695312 18.730469 C 13.675781 18.703125 13.660156 18.671875 13.648438 18.640625 C 13.664062 18.671875 13.675781 18.699219 13.695312 18.730469 Z M 13.535156 4.960938 C 14.6875 5.890625 15.398438 6.996094 15.203125 8.566406 C 14.984375 10.3125 14.875 12.074219 14.710938 13.832031 C 14.703125 13.9375 14.660156 14.042969 14.636719 14.136719 C 13.976562 14.261719 13.566406 14.027344 13.210938 13.480469 C 12.28125 12.058594 11.292969 10.671875 10.890625 8.988281 C 10.664062 8.046875 10.585938 7.101562 10.929688 6.160156 C 11.25 5.28125 12.039062 4.714844 12.980469 4.730469 C 13.167969 4.734375 13.386719 4.839844 13.535156 4.960938 Z M 15.492188 16.40625 C 15.632812 16.175781 15.75 15.96875 15.839844 15.863281 C 16.421875 15.179688 16.570312 15.164062 17.09375 14.769531 C 18.195312 13.933594 19.304688 13.089844 20.273438 12.117188 C 21.648438 10.730469 22.320312 9.050781 21.855469 7.074219 C 21.570312 5.859375 20.65625 5.003906 19.40625 4.859375 C 17.804688 4.671875 16.605469 5.375 15.699219 6.632812 C 15.609375 6.757812 15.523438 6.882812 15.402344 7.0625 C 14.984375 5.894531 14.285156 5.054688 13.28125 4.460938 C 11.101562 3.171875 8.480469 4.257812 8.015625 6.652344 C 7.808594 7.714844 8.125 8.699219 8.597656 9.640625 C 9.429688 11.289062 10.597656 12.710938 11.960938 13.953125 C 12.542969 14.488281 12.945312 15.078125 13.179688 15.757812 C 13.226562 15.878906 13.246094 15.976562 13.277344 16.09375 C 13.3125 16.226562 13.339844 16.363281 13.359375 16.503906 C 13.453125 17.125 13.449219 17.765625 13.417969 18.394531 C 13.390625 18.964844 13.734375 19.117188 14.183594 19.175781 C 14.636719 19.234375 15.113281 19.230469 15.199219 18.644531 C 15.289062 18.039062 15.316406 17.425781 15.371094 16.816406 " fill-opacity="1" fill-rule="nonzero"/></g><g clip-path="url(#b7298ee8c3)"><path fill="#f1a2aa" d="M 14.207031 25.644531 L 13.433594 25.59375 C 13.09375 25.574219 12.835938 25.28125 12.855469 24.949219 L 13.238281 19.136719 C 13.261719 18.800781 13.554688 18.546875 13.894531 18.566406 L 14.667969 18.617188 C 15.007812 18.636719 15.265625 18.929688 15.246094 19.261719 L 14.863281 25.078125 C 14.84375 25.410156 14.546875 25.664062 14.207031 25.644531 " fill-opacity="1" fill-rule="nonzero"/></g><g clip-path="url(#ef3baf1cc0)"><path fill="#ab9a55" d="M 20.535156 11.820312 C 19.574219 12.878906 18.421875 13.765625 17.3125 14.683594 C 17.109375 14.851562 16.71875 14.800781 16.347656 14.726562 C 16.449219 14.59375 16.542969 14.460938 16.652344 14.335938 C 17.898438 12.902344 18.925781 11.328125 19.488281 9.507812 C 19.679688 8.886719 19.75 8.214844 19.757812 7.5625 C 19.765625 6.464844 19.214844 5.640625 18.191406 5.097656 C 19.9375 4.523438 21.539062 5.507812 21.867188 7.316406 C 22.175781 9.027344 21.667969 10.574219 20.535156 11.820312 Z M 16.144531 14.535156 C 15.90625 14.800781 15.246094 14.6875 14.664062 14.761719 C 14.789062 13.476562 14.882812 12.351562 15.007812 11.230469 C 15.125 10.179688 15.269531 9.132812 15.40625 8.082031 C 15.578125 6.8125 16.300781 5.929688 17.417969 5.355469 C 17.609375 5.257812 17.929688 5.253906 18.128906 5.34375 C 19.269531 5.871094 19.859375 7.074219 19.636719 8.308594 C 19.195312 10.785156 17.785156 12.738281 16.144531 14.535156 Z M 11.554688 13.90625 C 10.175781 12.414062 8.863281 10.886719 8.167969 8.9375 C 7.484375 7.015625 7.929688 5.378906 9.417969 4.429688 C 10.40625 3.796875 11.441406 3.789062 12.550781 4.292969 C 10.746094 4.878906 9.976562 6.210938 10.21875 8.1875 C 10.410156 9.75 11.058594 11.132812 11.882812 12.445312 C 12.292969 13.101562 12.730469 13.738281 13.183594 14.421875 C 12.503906 14.550781 12.011719 14.402344 11.554688 13.90625 Z M 13.535156 19.46875 C 13.515625 19.441406 13.503906 19.410156 13.488281 19.375 C 13.503906 19.40625 13.519531 19.4375 13.535156 19.46875 Z M 13.371094 4.8125 C 14.582031 5.800781 15.328125 6.976562 15.121094 8.648438 C 14.890625 10.507812 14.773438 12.382812 14.605469 14.253906 C 14.59375 14.367188 14.550781 14.480469 14.523438 14.578125 C 13.832031 14.710938 13.40625 14.464844 13.027344 13.878906 C 12.054688 12.367188 11.011719 10.890625 10.59375 9.101562 C 10.355469 8.097656 10.273438 7.089844 10.632812 6.089844 C 10.972656 5.152344 11.796875 4.550781 12.785156 4.566406 C 12.984375 4.570312 13.210938 4.679688 13.371094 4.8125 Z M 15.425781 16.996094 C 15.570312 16.753906 15.695312 16.53125 15.789062 16.414062 C 16.398438 15.6875 16.558594 15.675781 17.105469 15.253906 C 18.261719 14.363281 19.425781 13.464844 20.445312 12.429688 C 21.890625 10.953125 22.597656 9.164062 22.105469 7.058594 C 21.808594 5.769531 20.847656 4.859375 19.535156 4.703125 C 17.851562 4.503906 16.589844 5.253906 15.640625 6.589844 C 15.546875 6.722656 15.457031 6.859375 15.328125 7.050781 C 14.890625 5.804688 14.15625 4.910156 13.105469 4.277344 C 10.816406 2.90625 8.0625 4.0625 7.574219 6.609375 C 7.355469 7.742188 7.691406 8.789062 8.1875 9.789062 C 9.0625 11.550781 10.285156 13.0625 11.714844 14.386719 C 12.328125 14.953125 12.753906 15.582031 12.996094 16.304688 C 13.046875 16.433594 13.066406 16.539062 13.097656 16.660156 C 13.132812 16.804688 13.164062 16.949219 13.1875 17.097656 C 13.285156 17.757812 13.277344 18.445312 13.246094 19.113281 C 13.21875 19.71875 13.578125 19.882812 14.046875 19.945312 C 14.527344 20.007812 15.027344 20.003906 15.117188 19.378906 C 15.214844 18.738281 15.242188 18.082031 15.300781 17.433594 " fill-opacity="1" fill-rule="nonzero"/></g><g clip-path="url(#0099a0d187)"><path fill="#f1a2aa" d="M 14.074219 26.832031 L 13.265625 26.777344 C 12.90625 26.757812 12.632812 26.445312 12.65625 26.089844 L 13.058594 19.902344 C 13.082031 19.546875 13.390625 19.273438 13.75 19.296875 L 14.558594 19.347656 C 14.914062 19.371094 15.1875 19.683594 15.164062 20.039062 L 14.765625 26.226562 C 14.742188 26.582031 14.429688 26.855469 14.074219 26.832031 " fill-opacity="1" fill-rule="nonzero"/></g></svg>